<svg width="12" height="15" viewBox="0 0 12 15" fill="none" xmlns="http://www.w3.org/2000/svg">
<path d="M1 1H7.02891C7.82839 1 8.59513 1.31759 9.16045 1.88291C9.72577 2.44823 10.0434 3.21497 10.0434 4.01445C10.0434 4.81394 9.72577 5.58068 9.16045 6.146C8.59513 6.71132 7.82839 7.02891 7.02891 7.02891H1V1Z" stroke="#999997" stroke-width="2" stroke-linecap="round" stroke-linejoin="round"/>
<path d="M1 7.02893H7.78252C8.58201 7.02893 9.34875 7.34652 9.91406 7.91184C10.4794 8.47716 10.797 9.2439 10.797 10.0434C10.797 10.8429 10.4794 11.6096 9.91406 12.1749C9.34875 12.7402 8.58201 13.0578 7.78252 13.0578H1V7.02893Z" stroke="#999997" stroke-width="2" stroke-linecap="round" stroke-linejoin="round"/>
</svg>
