<svg width="16" height="16" viewBox="0 0 16 16" fill="none" xmlns="http://www.w3.org/2000/svg">
<path d="M5.40886 6.44515C6.05319 6.44515 6.57552 5.92282 6.57552 5.27848C6.57552 4.63415 6.05319 4.11182 5.40886 4.11182C4.76452 4.11182 4.24219 4.63415 4.24219 5.27848C4.24219 5.92282 4.76452 6.44515 5.40886 6.44515Z" stroke="#999997" stroke-width="1.5" stroke-linecap="round" stroke-linejoin="round"/>
<path d="M15.1329 10.334L11.244 6.44507L2.68842 15.0006" stroke="#999997" stroke-width="1.5" stroke-linecap="round" stroke-linejoin="round"/>
<path d="M13.5773 1H2.68837C1.82926 1 1.13281 1.69645 1.13281 2.55556V13.4445C1.13281 14.3036 1.82926 15 2.68837 15H13.5773C14.4364 15 15.1328 14.3036 15.1328 13.4445V2.55556C15.1328 1.69645 14.4364 1 13.5773 1Z" stroke="#999997" stroke-width="1.5" stroke-linecap="round" stroke-linejoin="round"/>
</svg>
