<svg width="14" height="14" viewBox="0 0 14 14" fill="none" xmlns="http://www.w3.org/2000/svg">
<path d="M6.29742 7.3236C6.5458 7.65565 6.86269 7.93041 7.2266 8.12923C7.5905 8.32804 7.99291 8.44627 8.40652 8.4759C8.82014 8.50552 9.23528 8.44584 9.62381 8.30091C10.0123 8.15598 10.3651 7.92919 10.6583 7.63592L12.3934 5.90082C12.9202 5.35541 13.2117 4.62493 13.2051 3.8667C13.1985 3.10847 12.8943 2.38317 12.3582 1.847C11.822 1.31083 11.0967 1.0067 10.3385 1.00011C9.58024 0.993521 8.84976 1.285 8.30435 1.81177L7.30956 2.80078" stroke="#999997" stroke-width="1.5" stroke-linecap="round" stroke-linejoin="round"/>
<path d="M8.61087 6.16689C8.36249 5.83483 8.0456 5.56008 7.6817 5.36126C7.31779 5.16244 6.91539 5.04421 6.50177 5.01459C6.08816 4.98497 5.67301 5.04465 5.28449 5.18958C4.89597 5.33451 4.54316 5.5613 4.24999 5.85457L2.5149 7.58967C1.98813 8.13507 1.69665 8.86556 1.70323 9.62379C1.70982 10.382 2.01395 11.1073 2.55012 11.6435C3.08629 12.1797 3.8116 12.4838 4.56983 12.4904C5.32805 12.497 6.05854 12.2055 6.60394 11.6787L7.59295 10.6897" stroke="#999997" stroke-width="1.5" stroke-linecap="round" stroke-linejoin="round"/>
</svg>
