<svg width="60" height="88" viewBox="0 0 60 88" fill="none" xmlns="http://www.w3.org/2000/svg">
  <path d="M59.6962 77.871V86.5336C59.6962 87.3435 59.0396 88.0001 58.2298 88.0001C57.4199 88.0001 56.7633 87.3435 56.7633 86.5336V77.871C56.7633 71.1261 51.3052 65.6677 44.5598 65.6679C41.3682 65.6679 38.4725 64.0419 36.8134 61.3183C36.3921 60.6267 36.6112 59.7243 37.303 59.303C37.9946 58.8816 38.8969 59.1008 39.3183 59.7926C40.4405 61.6351 42.3999 62.7349 44.5598 62.7349C52.9255 62.7346 59.6962 69.5046 59.6962 77.871ZM34.1051 63.1709C34.2776 63.9622 33.7759 64.7435 32.9846 64.916C29.1252 65.7568 25.2 64.915 22.0747 62.7819C18.9808 66.0974 14.8934 65.6679 15.4406 65.6679C8.69573 65.6677 3.23715 71.1256 3.23715 77.871V86.5336C3.23715 87.3435 2.58053 88.0001 1.77067 88.0001C0.960813 88.0001 0.304199 87.3435 0.304199 86.5336V77.871C0.304199 69.5055 7.07363 62.7349 15.4402 62.7349C18.8245 62.7349 21.5681 60.0082 21.5681 56.6231V56.2368C15.1671 53.1761 10.6742 46.7443 10.4003 39.2545C7.76617 38.6212 5.80348 36.2634 5.80348 33.4583V25.8559C5.72337 22.1347 6.27587 12.8147 13.0713 6.26432C21.4623 -1.82438 34.9187 -1.31057 44.8133 3.45273C45.7777 3.91741 45.9242 5.22038 45.1233 5.89514C50.1359 7.11781 54.4583 10.1992 57.2353 14.6093C57.3786 14.8364 57.6411 15.193 57.5726 15.7618C57.5301 16.1157 57.4247 16.4153 57.1519 16.6921C55.3646 18.5046 54.3804 20.9065 54.3804 23.4554V33.4586C54.3804 34.2685 53.7238 34.9251 52.914 34.9251C52.1041 34.9251 51.4475 34.2685 51.4475 33.4586V23.4554C51.4475 20.5157 52.4518 17.7254 54.2965 15.4839C51.4849 11.4628 47.0983 8.87666 42.1372 8.34543L39.5597 8.06937C38.0525 7.90806 37.7569 5.83171 39.1575 5.25521L40.3298 4.77255C25.0627 -0.549832 8.73624 5.36391 8.73624 25.8399V33.4583C8.73624 34.6219 9.40642 35.6332 10.386 36.1412V26.6342C10.386 20.974 14.9911 16.3689 20.6513 16.3689H39.3489C45.0091 16.3689 49.6142 20.9736 49.6142 26.6336V38.641C49.6142 51.3945 37.1514 61.0817 24.4697 57.3482C24.3872 58.3946 24.1267 59.4042 23.7023 60.3428C26.1693 62.0369 29.2847 62.7203 32.36 62.0501C33.1514 61.8778 33.9327 62.3795 34.1051 63.1709ZM30.0001 55.2106C39.1982 55.2106 46.6813 47.7276 46.6813 38.5295V26.6336C46.6813 22.5909 43.392 19.3018 39.3489 19.3018H20.6513C16.6083 19.3018 13.319 22.5911 13.319 26.6342V38.5295C13.319 47.7276 20.802 55.2106 30.0001 55.2106ZM44.8482 80.4844H40.4488C39.6389 80.4844 38.9823 81.141 38.9823 81.9509C38.9823 82.7607 39.6389 83.4174 40.4488 83.4174H44.8482C45.658 83.4174 46.3147 82.7607 46.3147 81.9509C46.3147 81.141 45.658 80.4844 44.8482 80.4844Z" fill="#CCCDD2"/>
</svg>
