<svg width="52" height="52" viewBox="0 0 52 52" fill="none" xmlns="http://www.w3.org/2000/svg">
<rect x="0.804688" width="51.1933" height="51.1933" rx="4" fill="#F5F5F5"/>
<path d="M25.0203 30.0875C23.4698 29.9258 22.0718 29.5439 20.8749 28.6078C20.7264 28.4914 20.5731 28.3791 20.4376 28.249C19.9137 27.7459 19.8609 27.1696 20.2755 26.5758C20.6301 26.0676 21.2254 25.9317 21.8441 26.2235C21.964 26.28 22.0781 26.3506 22.1875 26.4264C24.4181 27.9591 27.4823 28.0014 29.7213 26.4954C29.9431 26.3253 30.1803 26.1866 30.4551 26.1158C30.9894 25.9786 31.4877 26.1749 31.7745 26.6424C32.1021 27.1763 32.0979 27.6975 31.6943 28.112C31.0751 28.7475 30.3304 29.2073 29.503 29.5282C28.7207 29.8315 27.8638 29.9842 27.0156 30.0856C27.1436 30.2249 27.204 30.2934 27.284 30.3738C28.4356 31.5309 29.5923 32.6832 30.7402 33.8438C31.1312 34.2393 31.2129 34.7297 30.9976 35.1896C30.7621 35.6924 30.2351 36.0231 29.7184 35.9877C29.391 35.9651 29.1356 35.8021 28.9088 35.5736C28.0397 34.6991 27.1543 33.8407 26.3028 32.9496C26.055 32.6905 25.9358 32.7395 25.7172 32.9645C24.8429 33.8646 23.9543 34.7508 23.0605 35.632C22.6592 36.0277 22.1816 36.0989 21.7162 35.8729C21.2214 35.6331 20.9066 35.1281 20.9309 34.6205C20.9476 34.2772 21.1165 34.015 21.3521 33.7797C22.4918 32.6417 23.6284 31.5007 24.7654 30.3608C24.8406 30.285 24.9107 30.2046 25.0203 30.0875Z" fill="#989997"/>
<path d="M25.9634 26.1233C23.1974 26.1139 20.9293 23.8208 20.9454 21.0504C20.9613 18.2495 23.2309 15.9923 26.0241 16C28.823 16.0076 31.0695 18.2972 31.0555 21.1273C31.0412 23.8921 28.7574 26.1329 25.9634 26.1233ZM28.4772 21.0572C28.4723 19.6816 27.3768 18.5865 26.004 18.5852C24.6196 18.5838 23.5143 19.6988 23.525 21.0869C23.5352 22.4572 24.6402 23.5446 26.0168 23.5395C27.3892 23.5347 28.4818 22.4325 28.4772 21.0572Z" fill="#989997"/>
</svg>
