<svg width="52" height="52" viewBox="0 0 52 52" fill="none" xmlns="http://www.w3.org/2000/svg">
<rect x="0.898438" width="50.1041" height="51.1933" rx="4" fill="#F5F5F5"/>
<path d="M38.3179 31.4871C38.252 31.3767 37.844 30.4902 35.8809 28.6683C33.8259 26.7604 34.1019 27.0702 36.5772 23.7713C38.0848 21.7622 38.6875 20.5353 38.4989 20.0108C38.3195 19.5108 37.2106 19.6427 37.2106 19.6427L33.5237 19.6642C33.5237 19.6642 33.2507 19.6274 33.0468 19.7486C32.8489 19.8682 32.7216 20.1442 32.7216 20.1442C32.7216 20.1442 32.1373 21.6994 31.3582 23.0214C29.7157 25.8111 29.0577 25.9583 28.7893 25.785C28.1651 25.3817 28.3216 24.1624 28.3216 23.2974C28.3216 20.5936 28.7311 19.4664 27.5225 19.175C27.1207 19.0783 26.8263 19.0139 25.8003 19.0032C24.4844 18.9894 23.3694 19.0078 22.7391 19.3161C22.3189 19.5216 21.9953 19.9801 22.1931 20.0062C22.437 20.0384 22.9891 20.155 23.282 20.5537C23.6608 21.0675 23.647 22.2239 23.647 22.2239C23.647 22.2239 23.8648 25.4062 23.1394 25.8019C22.6409 26.0733 21.9585 25.5197 20.4938 22.9876C19.7439 21.6917 19.1764 20.2577 19.1764 20.2577C19.1764 20.2577 19.0675 19.9909 18.8728 19.8482C18.6366 19.6749 18.3053 19.6197 18.3053 19.6197L14.7994 19.6412C14.7994 19.6412 14.2733 19.6565 14.0801 19.885C13.9083 20.089 14.0663 20.5092 14.0663 20.5092C14.0663 20.5092 16.8115 26.9306 19.9187 30.1682C22.7698 33.1358 26.0058 32.941 26.0058 32.941H27.4719C27.4719 32.941 27.9152 32.8919 28.1406 32.6481C28.3492 32.4242 28.3415 32.004 28.3415 32.004C28.3415 32.004 28.3124 30.0363 29.2264 29.7464C30.1267 29.4612 31.2831 31.6482 32.5084 32.4901C33.4348 33.1266 34.1387 32.987 34.1387 32.987L37.4161 32.941C37.4161 32.941 39.1308 32.8352 38.3179 31.4871Z" fill="#999997"/>
</svg>
