<svg width="16" height="16" viewBox="0 0 16 16" fill="none" xmlns="http://www.w3.org/2000/svg">
<circle cx="8" cy="8" r="8" fill="#E3E3E3"/>
<path d="M9.78125 11H5.479V10.2661L7.61035 7.94141C7.91797 7.59863 8.13623 7.31299 8.26514 7.08447C8.39697 6.85303 8.46289 6.62158 8.46289 6.39014C8.46289 6.08545 8.37646 5.83936 8.20361 5.65186C8.03369 5.46436 7.80371 5.37061 7.51367 5.37061C7.16797 5.37061 6.8999 5.47607 6.70947 5.68701C6.51904 5.89795 6.42383 6.18652 6.42383 6.55273H5.35596C5.35596 6.16309 5.44385 5.81299 5.61963 5.50244C5.79834 5.18896 6.05176 4.9458 6.37988 4.77295C6.71094 4.6001 7.0918 4.51367 7.52246 4.51367C8.14355 4.51367 8.63281 4.67041 8.99023 4.98389C9.35059 5.29443 9.53076 5.7251 9.53076 6.27588C9.53076 6.59521 9.43994 6.93066 9.2583 7.28223C9.07959 7.63086 8.78516 8.02783 8.375 8.47314L6.81055 10.1475H9.78125V11Z" fill="#464444"/>
</svg>
