<svg width="16" height="16" viewBox="0 0 16 16" fill="none" xmlns="http://www.w3.org/2000/svg">
<circle cx="8" cy="8" r="8" fill="#E3E3E3"/>
<path d="M6.71387 7.31299H7.36426C7.69238 7.31006 7.95166 7.2251 8.14209 7.05811C8.33545 6.89111 8.43213 6.64941 8.43213 6.33301C8.43213 6.02832 8.35156 5.79248 8.19043 5.62549C8.03223 5.45557 7.78906 5.37061 7.46094 5.37061C7.17383 5.37061 6.93799 5.4541 6.75342 5.62109C6.56885 5.78516 6.47656 6.00049 6.47656 6.26709H5.40869C5.40869 5.93896 5.49512 5.64014 5.66797 5.37061C5.84375 5.10107 6.08691 4.8916 6.39746 4.74219C6.71094 4.58984 7.06104 4.51367 7.44775 4.51367C8.08643 4.51367 8.5874 4.6748 8.95068 4.99707C9.31689 5.31641 9.5 5.76172 9.5 6.33301C9.5 6.62012 9.40771 6.89111 9.22314 7.146C9.0415 7.39795 8.80566 7.58838 8.51562 7.71729C8.86719 7.8374 9.13379 8.02637 9.31543 8.28418C9.5 8.54199 9.59229 8.84961 9.59229 9.20703C9.59229 9.78125 9.39453 10.2383 8.99902 10.5781C8.60645 10.918 8.08936 11.0879 7.44775 11.0879C6.83252 11.0879 6.32861 10.9238 5.93604 10.5957C5.54346 10.2676 5.34717 9.83105 5.34717 9.28613H6.41504C6.41504 9.56738 6.50879 9.7959 6.69629 9.97168C6.88672 10.1475 7.1416 10.2354 7.46094 10.2354C7.79199 10.2354 8.05273 10.1475 8.24316 9.97168C8.43359 9.7959 8.52881 9.54102 8.52881 9.20703C8.52881 8.87012 8.4292 8.61084 8.22998 8.4292C8.03076 8.24756 7.73486 8.15674 7.34229 8.15674H6.71387V7.31299Z" fill="#464444"/>
</svg>
