<svg width="16" height="16" viewBox="0 0 16 16" fill="none" xmlns="http://www.w3.org/2000/svg">
<circle cx="8" cy="8" r="8" fill="#E3E3E3"/>
<path d="M5.76465 7.82715L6.11182 4.60156H9.54834V5.52441H6.99951L6.82373 7.05371C7.11963 6.88379 7.45361 6.79883 7.82568 6.79883C8.43506 6.79883 8.9082 6.99365 9.24512 7.3833C9.58496 7.77295 9.75488 8.29736 9.75488 8.95654C9.75488 9.60693 9.56738 10.1255 9.19238 10.5122C8.81738 10.896 8.30322 11.0879 7.6499 11.0879C7.06396 11.0879 6.57764 10.9224 6.19092 10.5913C5.80713 10.2573 5.59912 9.81787 5.56689 9.27295H6.59961C6.64062 9.5835 6.75195 9.82227 6.93359 9.98926C7.11523 10.1533 7.35254 10.2354 7.64551 10.2354C7.97363 10.2354 8.22852 10.1182 8.41016 9.88379C8.59473 9.64941 8.68701 9.33008 8.68701 8.92578C8.68701 8.53613 8.58594 8.22852 8.38379 8.00293C8.18164 7.77441 7.90332 7.66016 7.54883 7.66016C7.35547 7.66016 7.19141 7.68652 7.05664 7.73926C6.92188 7.78906 6.77539 7.88867 6.61719 8.03809L5.76465 7.82715Z" fill="#464444"/>
</svg>
