<svg width="12" height="13" viewBox="0 0 12 13" fill="none" xmlns="http://www.w3.org/2000/svg">
<path d="M10.0667 6.09985H2.13333C1.50741 6.09985 1 6.60726 1 7.23319V11.1999C1 11.8258 1.50741 12.3332 2.13333 12.3332H10.0667C10.6926 12.3332 11.2 11.8258 11.2 11.1999V7.23319C11.2 6.60726 10.6926 6.09985 10.0667 6.09985Z" stroke="#999997" stroke-linecap="round" stroke-linejoin="round"/>
<path d="M3.2666 6.1V3.83333C3.2666 3.08189 3.56511 2.36122 4.09647 1.82986C4.62782 1.29851 5.34849 1 6.09994 1C6.85138 1 7.57205 1.29851 8.1034 1.82986C8.63476 2.36122 8.93327 3.08189 8.93327 3.83333V6.1" stroke="#999997" stroke-linecap="round" stroke-linejoin="round"/>
</svg>
