<svg width="33" height="33" viewBox="0 0 33 33" fill="none" xmlns="http://www.w3.org/2000/svg">
<circle cx="16.5" cy="16.5" r="16.5" fill="#F2F2F2"/>
<path d="M18.8176 23.9189C19.4199 22.7143 20.1377 20.663 19.135 19.7785C18.2107 19.9173 17.4633 19.9181 16.8552 19.7816C15.3239 19.4378 14.8392 18.2246 15.2608 16.6709C13.2005 18.5536 13.1136 21.3297 13.8773 24.003C14.0014 24.4372 13.5153 24.7929 13.1389 24.542C13.0107 24.4565 10 22.4132 10 19.2667C10 14.1119 15.8441 13.8901 15.8441 8.48759C15.8441 8.0749 16.3277 7.84903 16.6441 8.11448C18.9794 10.0734 23.2288 14.7825 22.9904 19.1136C22.8722 21.2607 21.7056 23.0871 19.5233 24.542C19.1105 24.8171 18.595 24.364 18.8176 23.9189Z" fill="#F3B14E"/>
</svg>
