<svg width="33" height="33" viewBox="0 0 33 33" fill="none" xmlns="http://www.w3.org/2000/svg">
<circle cx="16.5" cy="16.5" r="16.5" fill="#F2F2F2"/>
<path d="M21.6944 14.5H20.7778V13.2778C20.7778 10.919 18.8588 9 16.5 9C14.1412 9 12.2222 10.919 12.2222 13.2778V14.5H11.3056C11.1367 14.5 11 14.6367 11 14.8056V22.4445C11 23.1185 11.5481 23.6667 12.2222 23.6667H20.7778C21.4519 23.6667 22 23.1185 22 22.4444V14.8056C22 14.6367 21.8633 14.5 21.6944 14.5ZM17.4149 20.883C17.4244 20.9692 17.3967 21.0557 17.3388 21.1205C17.2809 21.1852 17.198 21.2222 17.1111 21.2222H15.8889C15.8021 21.2222 15.7191 21.1852 15.6612 21.1205C15.6033 21.0557 15.5756 20.9692 15.5851 20.883L15.7779 19.1496C15.4649 18.9219 15.2778 18.5618 15.2778 18.1667C15.2778 17.4926 15.8259 16.9444 16.5 16.9444C17.1741 16.9444 17.7223 17.4926 17.7223 18.1667C17.7223 18.5618 17.5352 18.9219 17.2222 19.1496L17.4149 20.883ZM18.9444 14.5H14.0556V13.2778C14.0556 11.9299 15.1522 10.8333 16.5 10.8333C17.8478 10.8333 18.9444 11.9299 18.9444 13.2778V14.5Z" fill="#FF5353"/>
</svg>
