<svg width="20" height="19" viewBox="0 0 20 19" fill="none" xmlns="http://www.w3.org/2000/svg">
<path d="M9.99996 11.9545C11.3556 11.9545 12.4545 10.8556 12.4545 9.49996C12.4545 8.14435 11.3556 7.04541 9.99996 7.04541C8.64435 7.04541 7.54541 8.14435 7.54541 9.49996C7.54541 10.8556 8.64435 11.9545 9.99996 11.9545Z" stroke="white" stroke-linecap="round" stroke-linejoin="round"/>
<path d="M16.0545 11.9545C15.9456 12.2013 15.9131 12.4751 15.9613 12.7405C16.0094 13.0059 16.1359 13.2508 16.3245 13.4436L16.3736 13.4927C16.5258 13.6447 16.6465 13.8252 16.7288 14.0238C16.8112 14.2225 16.8536 14.4354 16.8536 14.6505C16.8536 14.8655 16.8112 15.0784 16.7288 15.2771C16.6465 15.4757 16.5258 15.6562 16.3736 15.8082C16.2217 15.9603 16.0412 16.081 15.8425 16.1634C15.6439 16.2457 15.431 16.2881 15.2159 16.2881C15.0009 16.2881 14.7879 16.2457 14.5893 16.1634C14.3906 16.081 14.2102 15.9603 14.0582 15.8082L14.0091 15.7591C13.8163 15.5705 13.5714 15.4439 13.3059 15.3958C13.0405 15.3477 12.7668 15.3802 12.52 15.4891C12.278 15.5928 12.0716 15.765 11.9263 15.9845C11.7809 16.204 11.7029 16.4613 11.7018 16.7245V16.8636C11.7018 17.2976 11.5294 17.7138 11.2225 18.0207C10.9157 18.3276 10.4994 18.5 10.0655 18.5C9.63146 18.5 9.21525 18.3276 8.90837 18.0207C8.60149 17.7138 8.42909 17.2976 8.42909 16.8636V16.79C8.42276 16.5192 8.3351 16.2565 8.17751 16.0362C8.01992 15.8159 7.79969 15.6481 7.54545 15.5545C7.29868 15.4456 7.02493 15.4131 6.75952 15.4613C6.4941 15.5094 6.24919 15.6359 6.05636 15.8245L6.00727 15.8736C5.8553 16.0258 5.67483 16.1465 5.47617 16.2288C5.27752 16.3112 5.06459 16.3536 4.84955 16.3536C4.6345 16.3536 4.42157 16.3112 4.22292 16.2288C4.02426 16.1465 3.84379 16.0258 3.69182 15.8736C3.53967 15.7217 3.41898 15.5412 3.33663 15.3425C3.25428 15.1439 3.21189 14.931 3.21189 14.7159C3.21189 14.5009 3.25428 14.2879 3.33663 14.0893C3.41898 13.8906 3.53967 13.7102 3.69182 13.5582L3.74091 13.5091C3.92953 13.3163 4.05606 13.0714 4.10419 12.8059C4.15231 12.5405 4.11982 12.2668 4.01091 12.02C3.90719 11.778 3.73498 11.5716 3.51547 11.4263C3.29596 11.2809 3.03873 11.2029 2.77545 11.2018H2.63636C2.20237 11.2018 1.78616 11.0294 1.47928 10.7225C1.1724 10.4157 1 9.99945 1 9.56545C1 9.13146 1.1724 8.71525 1.47928 8.40837C1.78616 8.10149 2.20237 7.92909 2.63636 7.92909H2.71C2.98081 7.92276 3.24346 7.8351 3.46379 7.67751C3.68412 7.51992 3.85195 7.29969 3.94545 7.04545C4.05437 6.79868 4.08686 6.52493 4.03873 6.25952C3.99061 5.9941 3.86408 5.74919 3.67545 5.55636L3.62636 5.50727C3.47422 5.3553 3.35352 5.17483 3.27118 4.97617C3.18883 4.77752 3.14644 4.56459 3.14644 4.34955C3.14644 4.1345 3.18883 3.92157 3.27118 3.72292C3.35352 3.52426 3.47422 3.34379 3.62636 3.19182C3.77834 3.03967 3.95881 2.91898 4.15746 2.83663C4.35611 2.75428 4.56905 2.71189 4.78409 2.71189C4.99913 2.71189 5.21207 2.75428 5.41072 2.83663C5.60937 2.91898 5.78984 3.03967 5.94182 3.19182L5.99091 3.24091C6.18374 3.42953 6.42865 3.55606 6.69406 3.60419C6.95948 3.65231 7.23322 3.61982 7.48 3.51091H7.54545C7.78745 3.40719 7.99383 3.23498 8.1392 3.01547C8.28457 2.79596 8.36259 2.53873 8.36364 2.27545V2.13636C8.36364 1.70237 8.53604 1.28616 8.84292 0.97928C9.14979 0.672402 9.56601 0.5 10 0.5C10.434 0.5 10.8502 0.672402 11.1571 0.97928C11.464 1.28616 11.6364 1.70237 11.6364 2.13636V2.21C11.6374 2.47328 11.7154 2.73051 11.8608 2.95002C12.0062 3.16953 12.2126 3.34174 12.4545 3.44545C12.7013 3.55437 12.9751 3.58686 13.2405 3.53873C13.5059 3.49061 13.7508 3.36408 13.9436 3.17545L13.9927 3.12636C14.1447 2.97422 14.3252 2.85352 14.5238 2.77118C14.7225 2.68883 14.9354 2.64644 15.1505 2.64644C15.3655 2.64644 15.5784 2.68883 15.7771 2.77118C15.9757 2.85352 16.1562 2.97422 16.3082 3.12636C16.4603 3.27834 16.581 3.45881 16.6634 3.65746C16.7457 3.85611 16.7881 4.06905 16.7881 4.28409C16.7881 4.49913 16.7457 4.71207 16.6634 4.91072C16.581 5.10937 16.4603 5.28984 16.3082 5.44182L16.2591 5.49091C16.0705 5.68374 15.9439 5.92865 15.8958 6.19406C15.8477 6.45948 15.8802 6.73322 15.9891 6.98V7.04545C16.0928 7.28745 16.265 7.49383 16.4845 7.6392C16.704 7.78457 16.9613 7.86259 17.2245 7.86364H17.3636C17.7976 7.86364 18.2138 8.03604 18.5207 8.34292C18.8276 8.64979 19 9.06601 19 9.5C19 9.93399 18.8276 10.3502 18.5207 10.6571C18.2138 10.964 17.7976 11.1364 17.3636 11.1364H17.29C17.0267 11.1374 16.7695 11.2154 16.55 11.3608C16.3305 11.5062 16.1583 11.7126 16.0545 11.9545V11.9545Z" stroke="white" stroke-linecap="round" stroke-linejoin="round"/>
</svg>
