<svg width="18" height="20" viewBox="0 0 18 20" fill="none" xmlns="http://www.w3.org/2000/svg">
<path d="M14.5 6.4C15.9912 6.4 17.2 5.19117 17.2 3.7C17.2 2.20883 15.9912 1 14.5 1C13.0089 1 11.8 2.20883 11.8 3.7C11.8 5.19117 13.0089 6.4 14.5 6.4Z" stroke="#5C5B5B" stroke-linecap="round" stroke-linejoin="round"/>
<path d="M3.7 12.7C5.19117 12.7 6.4 11.4912 6.4 10C6.4 8.50883 5.19117 7.3 3.7 7.3C2.20883 7.3 1 8.50883 1 10C1 11.4912 2.20883 12.7 3.7 12.7Z" stroke="#5C5B5B" stroke-linecap="round" stroke-linejoin="round"/>
<path d="M14.5 19C15.9912 19 17.2 17.7912 17.2 16.3C17.2 14.8088 15.9912 13.6 14.5 13.6C13.0089 13.6 11.8 14.8088 11.8 16.3C11.8 17.7912 13.0089 19 14.5 19Z" stroke="#5C5B5B" stroke-linecap="round" stroke-linejoin="round"/>
<path d="M6.03113 11.3588L12.1781 14.9408" stroke="#5C5B5B" stroke-linecap="round" stroke-linejoin="round"/>
<path d="M12.1691 5.05879L6.03113 8.64079" stroke="#5C5B5B" stroke-linecap="round" stroke-linejoin="round"/>
</svg>
