<svg width="12" height="12" viewBox="0 0 12 12" fill="none" xmlns="http://www.w3.org/2000/svg">
<path d="M9.24483 8.54545L11.8535 5.93676C12.1073 5.683 12.0186 5.25242 11.6852 5.11957C10.2995 4.56731 9.07655 4.48047 8.09558 4.66996C8.06442 4.67597 8.03478 4.68206 8.00661 4.68812L4.85584 2.00743C4.88586 1.5216 4.78689 1.06899 4.60082 0.662945C4.50188 0.447023 4.39956 0.287833 4.32164 0.191017C4.13536 -0.0404281 3.78944 -0.0590888 3.57935 0.15098L0.146329 3.58349C-0.0647696 3.79456 -0.0448211 4.14247 0.189059 4.32802C0.379928 4.47946 0.593064 4.59597 0.823174 4.68119C1.21343 4.82573 1.61121 4.8715 1.97789 4.85715L4.68218 8.03592C4.6775 8.06317 4.67282 8.09195 4.66816 8.1222C4.51119 9.14313 4.60382 10.368 5.12578 11.6793C5.25854 12.0128 5.68928 12.1015 5.94309 11.8477L8.53848 9.25182L11.1343 11.8476C11.3293 12.0427 11.6456 12.0427 11.8407 11.8476C12.0357 11.6526 12.0357 11.3363 11.8407 11.1412L9.24483 8.54545ZM5.80724 10.5707C5.57842 9.7226 5.55313 8.94016 5.65554 8.27404C5.67467 8.14957 5.69268 8.06753 5.70232 8.03299C5.74695 7.8731 5.70923 7.70148 5.60167 7.57504L2.57272 4.01465C2.45966 3.88175 2.28543 3.81748 2.11316 3.84511C2.10798 3.84593 2.08892 3.84837 2.05799 3.85118C1.83587 3.87133 1.58489 3.85956 1.34425 3.7984L3.79305 1.34998C3.8627 1.59399 3.88312 1.85707 3.8373 2.13459C3.80873 2.30755 3.87293 2.4828 4.00644 2.59638L7.55833 5.61833C7.69472 5.73437 7.8828 5.76851 8.05126 5.70784C8.08144 5.69698 8.16063 5.67483 8.28505 5.6508C8.91692 5.52875 9.69149 5.54858 10.58 5.79752L8.02129 8.35622L5.80724 10.5707Z" fill="#999997"/>
</svg>
