<svg width="33" height="33" viewBox="0 0 33 33" fill="none" xmlns="http://www.w3.org/2000/svg">
<circle cx="16.5" cy="16.5" r="16.5" fill="#F2F2F2"/>
<path d="M23 16.1389C23.0025 17.0921 22.7798 18.0325 22.35 18.8833C21.8404 19.9029 21.057 20.7605 20.0876 21.36C19.1181 21.9596 18.0009 22.2773 16.8611 22.2778C15.9079 22.2803 14.9675 22.0576 14.1167 21.6278L10 23L11.3722 18.8833C10.9424 18.0325 10.7197 17.0921 10.7222 16.1389C10.7227 14.9991 11.0404 13.8819 11.64 12.9124C12.2395 11.943 13.0971 11.1596 14.1167 10.65C14.9675 10.2202 15.9079 9.99754 16.8611 10H17.2222C18.7276 10.0831 20.1494 10.7185 21.2155 11.7845C22.2815 12.8506 22.9169 14.2724 23 15.7778V16.1389Z" fill="#43A5D2"/>
</svg>
