<svg width="20" height="16" viewBox="0 0 20 16" fill="none" xmlns="http://www.w3.org/2000/svg">
<path d="M13.7312 15.3228V13.7314C13.7312 12.8872 13.3958 12.0777 12.799 11.4808C12.2021 10.8839 11.3925 10.5486 10.5484 10.5486H4.18279C3.33866 10.5486 2.52911 10.8839 1.93222 11.4808C1.33533 12.0777 1 12.8872 1 13.7314V15.3228" stroke="#999997" stroke-linecap="round" stroke-linejoin="round"/>
<path d="M7.36541 7.36559C9.12322 7.36559 10.5482 5.9406 10.5482 4.18279C10.5482 2.42499 9.12322 1 7.36541 1C5.6076 1 4.18262 2.42499 4.18262 4.18279C4.18262 5.9406 5.6076 7.36559 7.36541 7.36559Z" stroke="#999997" stroke-linecap="round" stroke-linejoin="round"/>
<path d="M18.5043 15.3231V13.7317C18.5038 13.0265 18.269 12.3414 17.837 11.7841C17.4049 11.2267 16.8 10.8286 16.1172 10.6523" stroke="#999997" stroke-linecap="round" stroke-linejoin="round"/>
<path d="M12.9336 1.10352C13.6182 1.27881 14.225 1.67698 14.6584 2.23525C15.0917 2.79352 15.3269 3.48013 15.3269 4.18685C15.3269 4.89356 15.0917 5.58018 14.6584 6.13845C14.225 6.69672 13.6182 7.09489 12.9336 7.27018" stroke="#999997" stroke-linecap="round" stroke-linejoin="round"/>
</svg>
